<svg xmlns="http://www.w3.org/2000/svg" width="304.373" height="64.095" viewBox="0 0 304.373 64.095"><defs><style>.a,.b{fill:none;stroke:#456459;stroke-linecap:round;stroke-width:3.5px;}.b{stroke-linejoin:round;}.c{fill:#456459;font-size:33px;font-family:Courgette-Regular, Courgette;}</style></defs><g transform="translate(-29.627 -23.527)"><g transform="translate(32 26)"><path class="a" d="M931,512.836v4.454a16.043,16.043,0,0,0,.549,3.488c.389.864,13.568,15.769,13.568,15.769s2.768,4.318.966,8.147-5.1-10.711-5.1-10.711l1.133-9.057s6.756-14.28,9.93-17.235,9.082-8.841,9.082-8.841,7.349-3.932,10.549-7.542,5.269-5.84,5.269-5.84" transform="translate(-927.06 -485.468)"/><path class="b" d="M924.019,544.6l2.507,4.622-2.507-2.181v2.864l1.482,2.671.378.68,1.885,1.388h-3.745l7.09,6.429" transform="translate(-924.019 -511.225)"/><path class="b" d="M994.942,495.744a65.311,65.311,0,0,1-3.656,6.5c-1.007,1.224-9.57,8.876-9.57,8.876l10.849-5.292s-6.769,7.753-7.563,8.516-3.92,3.981-5.057,4.346-3.352,1.251-3.352,1.251,7.711-2.232,9.313-3.057a35.108,35.108,0,0,0,4.363-3.108s-8.546,8.605-9.054,9.061-6.676,5.008-7.254,5.046,5.987-1.125,5.987-1.125-4.646,3.725-5.431,4.177a16.551,16.551,0,0,0-3.367,2.616c-.41.625-1.836,2.29-1.836,2.29" transform="translate(-943.749 -489.944)"/></g><text class="c" transform="translate(95 67)"><tspan x="0" y="0">Guardian Angels</tspan></text></g></svg>